<svg width="378" height="354" viewBox="0 0 378 354" fill="none" xmlns="http://www.w3.org/2000/svg">
<path d="M269.147 219.957C275.751 210.486 280.779 200.021 284.034 188.971C290.59 166.768 289.998 142.293 280.735 119.145C258.829 64.3979 196.681 37.7716 141.933 59.6779C87.1739 81.5892 60.56 143.732 82.4664 198.48C91.7039 221.566 108.096 239.647 128.062 251.209C138.085 257.002 149.006 261.157 160.38 263.463" fill="#CAF5FF"/>
<path d="M161.757 266.915C161.108 267.175 160.378 267.255 159.642 267.105C147.885 264.721 136.635 260.455 126.202 254.425C104.613 241.923 88.2978 223.056 79.016 199.859C56.3823 143.294 83.9873 78.8618 140.552 56.2281C171.915 43.6789 206.774 46.0541 236.19 62.7457C237.975 63.7579 238.601 66.0261 237.587 67.8104C236.576 69.5959 234.307 70.2211 232.523 69.208C205.082 53.6378 172.566 51.4215 143.313 63.1269C90.5518 84.2385 64.8032 144.338 85.9148 197.099C94.5724 218.736 109.79 236.335 129.923 247.993C139.655 253.618 150.151 257.598 161.117 259.822C163.128 260.23 164.428 262.191 164.021 264.202C163.763 265.477 162.88 266.465 161.757 266.915Z" fill="#333333"/>
<path d="M270.53 223.405C269.408 223.854 268.088 223.748 267.022 223.004C265.338 221.831 264.926 219.515 266.099 217.832C272.487 208.672 277.321 198.608 280.47 187.921C287.076 165.546 285.975 142.242 277.285 120.526C270.75 104.193 260.113 89.7475 246.525 78.7506C244.93 77.4601 244.683 75.1201 245.974 73.5256C247.264 71.9313 249.604 71.6842 251.199 72.9747C265.772 84.7685 277.178 100.257 284.184 117.765C293.5 141.047 294.68 166.034 287.598 190.023C284.223 201.477 279.041 212.264 272.195 222.081C271.764 222.699 271.18 223.145 270.53 223.405Z" fill="#333333"/>
<path d="M127.971 88.6856C126.452 89.2937 124.655 88.8384 123.625 87.4685C122.39 85.8286 122.72 83.4999 124.359 82.2661C130.994 77.2736 138.303 73.1638 146.083 70.0505C150.83 68.1511 155.749 66.6277 160.703 65.5237C162.705 65.0768 164.69 66.3394 165.137 68.3416C165.584 70.3438 164.325 72.3314 162.319 72.7761C157.755 73.7934 153.221 75.1978 148.844 76.9493C141.672 79.819 134.937 83.6055 128.827 88.2039C128.557 88.4055 128.27 88.5663 127.971 88.6856Z" fill="white"/>
<path d="M266.568 127.385C264.663 128.148 262.5 127.221 261.738 125.316C255.101 108.73 243.73 94.7985 228.853 85.0278C214.308 75.4751 197.462 70.5263 180.136 70.7148C178.084 70.7371 176.402 69.0923 176.38 67.0401C176.358 64.9882 178.003 63.3071 180.055 63.2848C198.864 63.0793 217.149 68.4503 232.933 78.8173C249.087 89.4262 261.434 104.551 268.638 122.555C269.399 124.461 268.473 126.623 266.568 127.385Z" fill="white"/>
<path d="M135.473 225.775C145.103 221.922 149.786 210.992 145.933 201.362C142.079 191.732 131.149 187.049 121.519 190.902C111.889 194.756 107.206 205.686 111.059 215.316C114.913 224.946 125.843 229.629 135.473 225.775Z" fill="#F9E33D"/>
<path d="M261.188 175.472C270.818 171.619 275.501 160.689 271.647 151.059C267.794 141.429 256.864 136.746 247.234 140.599C237.604 144.452 232.921 155.383 236.774 165.013C240.627 174.643 251.558 179.326 261.188 175.472Z" fill="#F9E33D"/>
<path d="M136.853 229.225C125.336 233.833 112.218 228.212 107.61 216.696C103.002 205.18 108.623 192.061 120.139 187.453C131.655 182.845 144.774 188.465 149.382 199.982C153.99 211.498 148.37 224.616 136.853 229.225ZM122.899 194.352C115.186 197.438 111.423 206.223 114.509 213.936C117.595 221.648 126.381 225.412 134.093 222.326C141.805 219.24 145.569 210.454 142.483 202.742C139.397 195.03 130.612 191.265 122.899 194.352Z" fill="#666666"/>
<path d="M262.568 178.922C251.051 183.53 237.933 177.909 233.325 166.393C228.717 154.877 234.337 141.758 245.853 137.15C257.37 132.541 270.488 138.162 275.097 149.678C279.705 161.195 274.085 174.313 262.568 178.922ZM248.614 144.048C240.901 147.135 237.137 155.92 240.223 163.632C243.31 171.345 252.095 175.109 259.807 172.023C267.52 168.937 271.284 160.151 268.198 152.439C265.112 144.727 256.326 140.963 248.614 144.048Z" fill="#666666"/>
<path d="M214.022 255.862C180.359 269.331 142.014 252.903 128.545 219.241L120.088 198.106C106.618 164.443 123.047 126.099 156.709 112.629L167.755 108.21C201.417 94.7399 239.762 111.168 253.231 144.83L261.689 165.966C275.158 199.628 258.73 237.973 225.067 251.442L214.022 255.862Z" fill="#8FCDF7"/>
<path d="M236.531 156.69L244.529 176.677C254 200.346 242.485 227.221 218.817 236.692L208.371 240.872C184.703 250.342 157.827 238.828 148.356 215.16L140.358 195.172C130.888 171.504 142.402 144.628 166.071 135.157L176.517 130.978C200.186 121.507 227.061 133.021 236.531 156.69Z" fill="#D8B86F"/>
<path d="M221.252 162.803L229.25 182.791C238.721 206.459 233.306 230.894 217.158 237.356L210.031 240.208C193.883 246.669 173.106 232.714 163.636 209.046L155.638 189.058C146.167 165.39 151.582 140.955 167.73 134.493L174.857 131.641C191.005 125.18 211.782 139.135 221.252 162.803Z" fill="#F7D789"/>
<path d="M348.133 219.421C332.2 207.889 321.978 202.268 321.978 202.268C318.689 200.238 315.245 198.428 311.695 196.868L281.575 189.47C276.419 189.15 271.203 189.265 265.95 189.872L265.942 189.875C277.622 223.409 260.951 260.53 227.629 273.864C194.316 287.194 156.639 271.819 141.962 239.484C137.757 242.662 133.877 246.187 130.339 250.005L113.643 276.135C112.154 279.703 110.924 283.354 109.917 287.121C109.917 287.121 106.39 298.253 102.823 317.579C101.222 326.237 99.6185 336.524 98.3274 348.201L372.503 238.493C363.511 230.922 355.246 224.584 348.133 219.421Z" fill="#44A1E0"/>
<path d="M336.032 224.262C335.952 224.201 335.89 224.142 335.813 224.088C325.378 216.534 314.045 210.33 302.083 205.545L271.738 193.405C270.134 193.206 268.538 193.069 266.943 193.006C263.969 238.947 210.195 294.97 143.39 242.445C142.284 243.606 141.214 244.811 140.188 246.053L126.591 275.766C121.231 287.481 117.29 299.797 114.947 312.465C114.943 312.551 114.924 312.642 114.9 312.746C113.295 321.397 111.696 331.693 110.413 343.365L360.419 243.328C351.43 235.765 343.169 229.416 336.032 224.262Z" fill="#53AEF9"/>
<path d="M226.447 254.892L215.402 259.311C179.837 273.542 139.326 256.186 125.095 220.622L116.638 199.485C102.407 163.921 119.764 123.41 155.328 109.179L166.374 104.759C201.938 90.5288 242.45 107.885 256.68 143.449L265.138 164.585C279.369 200.15 262.012 240.661 226.447 254.892ZM158.089 116.078C126.328 128.786 110.828 164.965 123.537 196.725L131.994 217.861C144.703 249.622 180.881 265.121 212.641 252.413L223.687 247.993C255.447 235.284 270.947 199.106 258.239 167.346L249.782 146.21C237.073 114.449 200.895 98.9497 169.134 111.658L158.089 116.078Z" fill="#666666"/>
<path d="M220.197 240.141L209.75 244.321C184.213 254.54 155.125 242.077 144.906 216.54L136.908 196.552C126.69 171.015 139.153 141.927 164.69 131.708L175.136 127.528C200.674 117.31 229.762 129.772 239.981 155.309L247.978 175.297C258.197 200.834 245.734 229.923 220.197 240.141ZM167.451 138.607C145.718 147.303 135.112 172.058 143.808 193.792L151.806 213.779C160.502 235.513 185.257 246.119 206.991 237.422L217.437 233.243C239.169 224.547 249.776 199.791 241.08 178.058L233.082 158.07C224.386 136.337 199.63 125.731 177.897 134.427L167.451 138.607Z" fill="#666666"/>
<path d="M182.76 198.495C180.855 199.257 178.693 198.33 177.931 196.425L168.301 172.361C167.539 170.456 168.466 168.293 170.37 167.531C172.275 166.769 174.438 167.695 175.2 169.6L184.829 193.665C185.592 195.57 184.665 197.732 182.76 198.495Z" fill="#666666"/>
<path d="M208.126 188.345C206.222 189.107 204.059 188.18 203.297 186.276L193.667 162.211C192.905 160.306 193.832 158.143 195.737 157.381C197.641 156.619 199.804 157.545 200.566 159.45L210.195 183.515C210.958 185.42 210.031 187.583 208.126 188.345Z" fill="#666666"/>
<path d="M373.883 241.942L99.7076 351.65C98.4962 352.135 97.1189 351.949 96.0792 351.159C95.0398 350.369 94.4912 349.092 94.6339 347.795C95.7853 337.315 97.3118 326.921 99.1694 316.901C102.207 300.426 111.062 267.606 124.975 249.12C126.106 247.616 128.185 247.197 129.813 248.144C157.466 264.243 190.342 266.668 220.009 254.797C249.614 242.951 271.72 218.589 280.66 187.957C281.191 186.14 283.003 185.013 284.866 185.338C308.413 189.452 337.972 207.464 350.313 216.413C358.693 222.496 366.963 228.968 374.896 235.651C375.895 236.492 376.378 237.795 376.171 239.084C375.964 240.372 375.095 241.457 373.883 241.942ZM102.744 342.432L365.325 237.364C359.01 232.201 352.513 227.192 345.949 222.427C332.869 212.941 306.998 197.887 286.787 193.302C276.619 224.604 253.449 249.42 222.769 261.696C192.013 274.003 158.045 271.98 129.031 256.228C117.021 274 109.254 303.185 106.476 318.252C105.017 326.126 103.766 334.233 102.744 342.432Z" fill="#333333"/>
<path d="M168.884 306.993C167.925 307.377 166.811 307.36 165.817 306.854L112.888 279.914C111.06 278.983 110.332 276.746 111.262 274.917C112.193 273.089 114.429 272.361 116.259 273.291L169.188 300.232C171.017 301.163 171.744 303.4 170.814 305.229C170.389 306.065 169.691 306.67 168.884 306.993Z" fill="#333333"/>
<path d="M286.027 277.097C285.221 277.42 284.298 277.462 283.414 277.152C281.479 276.47 280.462 274.349 281.144 272.413L295.156 232.617C295.838 230.682 297.959 229.666 299.895 230.347C301.831 231.028 302.847 233.15 302.166 235.085L288.153 274.881C287.783 275.933 286.987 276.713 286.027 277.097Z" fill="#333333"/>
<path d="M306.78 218.174C305.973 218.497 305.05 218.54 304.167 218.228C302.232 217.547 301.215 215.425 301.897 213.49L307.762 196.837C308.444 194.901 310.565 193.885 312.501 194.567C314.436 195.248 315.452 197.37 314.771 199.306L308.905 215.959C308.535 217.01 307.739 217.79 306.78 218.174Z" fill="#333333"/>
<path d="M229.911 227.254C234.229 225.526 236.329 220.625 234.601 216.307C232.874 211.989 227.972 209.889 223.655 211.617C219.337 213.345 217.237 218.246 218.965 222.564C220.692 226.882 225.593 228.982 229.911 227.254Z" fill="#ED6B5D"/>
<path d="M231.292 230.704C225.079 233.19 218.002 230.158 215.515 223.945C213.029 217.732 216.062 210.654 222.275 208.168C228.488 205.682 235.565 208.714 238.051 214.927C240.537 221.14 237.505 228.218 231.292 230.704ZM225.035 215.066C222.626 216.03 221.45 218.775 222.414 221.184C223.378 223.593 226.122 224.768 228.531 223.804C230.94 222.84 232.116 220.096 231.152 217.687C230.188 215.278 227.444 214.103 225.035 215.066Z" fill="#666666"/>
</svg>
