<svg width="96" height="96" viewBox="0 0 96 96" fill="none" xmlns="http://www.w3.org/2000/svg">
<path d="M88.6441 51.8143C88.6441 54.9086 88.3171 57.9274 87.6932 60.8356C70.3399 68.3072 59.9274 66.2368 36.9113 49.8998C23.246 40.1993 10.4588 45.5125 2.81104 50.408C3.12047 40.7779 6.60471 31.9478 12.2474 24.9316C19.7568 21.9354 31.4195 19.6561 41.666 27.7743C54.6419 38.0585 70.2644 43.5376 85.497 35.6459C87.5271 40.637 88.6441 46.0961 88.6441 51.8143Z" fill="#F9911E"/>
<path d="M87.6932 60.8356C85.902 69.2179 81.663 76.692 75.7587 82.4756C72.9084 85.2706 69.6657 87.673 66.1236 89.5875C53.9828 83.1423 44.6924 72.2367 33.1378 70.3877C23.0574 68.7751 15.6688 72.8707 10.977 77.0367C5.82735 69.955 2.78839 61.2381 2.78839 51.8143C2.78839 51.3439 2.79594 50.8759 2.81103 50.408C10.4588 45.5125 23.246 40.1993 36.9113 49.8999C59.9274 66.2368 70.3399 68.3072 87.6932 60.8356Z" fill="#E27F1B"/>
<path d="M71.4694 17.465C77.6505 22.1089 82.541 28.3806 85.497 35.6459C70.2644 43.5377 54.6419 38.0585 41.666 27.7743C31.4195 19.6561 19.7568 21.9354 12.2474 24.9316C19.47 15.9505 30.2346 9.93801 42.4182 9.01223C43.5075 8.92921 44.6068 8.88644 45.7162 8.88644C55.379 8.88644 64.2947 12.0789 71.4694 17.465Z" fill="#F9A24B"/>
<path d="M66.1236 89.5875C60.0532 92.8755 53.1023 94.7421 45.7162 94.7421C44.9968 94.7421 44.2823 94.7245 43.5729 94.6893C30.1718 94.0302 18.3882 87.2252 10.977 77.0367C15.6688 72.8707 23.0574 68.7751 33.1378 70.3877C44.6924 72.2367 53.9828 83.1423 66.1236 89.5875Z" fill="#F9A24B"/>
<path d="M76.048 21.4373C63.4897 24.9341 45.7163 8.88644 45.7163 8.88644C55.3791 8.88644 64.2947 12.0789 71.4694 17.465C73.0896 18.6801 74.6191 20.0083 76.048 21.4373Z" fill="#E27F1B"/>
<path d="M74.0452 40.4496C73.4143 40.4496 72.8704 39.9762 72.797 39.3344C72.7182 38.6441 73.2136 38.0207 73.9039 37.9417C77.6726 37.5111 81.3785 36.3629 84.9181 34.5289C85.5339 34.2095 86.2939 34.4502 86.6134 35.0671C86.9329 35.6839 86.6922 36.4429 86.0751 36.7626C82.2628 38.738 78.2636 39.9754 74.1891 40.4411C74.1411 40.4469 74.093 40.4496 74.0452 40.4496Z" fill="#333333"/>
<path d="M69.476 40.6433C69.4639 40.6433 69.4519 40.6431 69.4398 40.6428C68.3691 40.6127 67.2775 40.5311 66.1953 40.4001C65.5057 40.3166 65.0142 39.6899 65.0977 39.0001C65.1812 38.3105 65.8086 37.8195 66.4974 37.9025C67.5034 38.0243 68.517 38.1002 69.5107 38.1282C70.2051 38.1478 70.7522 38.7264 70.7326 39.4207C70.7135 40.103 70.1542 40.6433 69.476 40.6433Z" fill="#333333"/>
<path d="M61.6723 39.5294C61.5696 39.5294 61.4652 39.5168 61.3614 39.4902C54.5813 37.7651 47.6921 34.1551 40.8848 28.76C31.2407 21.1193 20.242 23.0961 12.7133 26.0999C12.0685 26.3577 11.3362 26.0427 11.0791 25.3977C10.8218 24.7524 11.136 24.0206 11.7812 23.7633C19.9268 20.5132 31.8595 18.4001 42.4471 26.7884C48.9746 31.9619 55.5468 35.4152 61.981 37.0522C62.6544 37.2235 63.0612 37.908 62.8899 38.5815C62.7455 39.1505 62.2335 39.5294 61.6723 39.5294Z" fill="#333333"/>
<path d="M70.7985 66.2444C68.5811 66.2444 66.398 66.0011 64.1643 65.5264C56.6507 63.9294 48.5439 59.6993 36.183 50.9255C30.3881 46.8116 24.1897 45.1301 17.7595 45.9286C17.0702 46.0141 16.4418 45.5246 16.3563 44.8353C16.2708 44.146 16.7601 43.5175 17.4496 43.432C24.5233 42.5543 31.3156 44.3847 37.6396 48.874C49.5403 57.3212 57.6293 61.5652 64.6876 63.0655C71.6518 64.5458 78.1735 63.5649 87.196 59.6801C87.8338 59.4057 88.5744 59.7 88.8489 60.338C89.1236 60.976 88.829 61.7161 88.191 61.9908C81.4806 64.8801 76.0465 66.2444 70.7985 66.2444Z" fill="#333333"/>
<path d="M2.81228 51.6661C2.39769 51.6661 1.99166 51.4614 1.75166 51.0863C1.37707 50.5011 1.54764 49.7233 2.13304 49.3487C5.51212 47.1857 8.9068 45.5744 12.2225 44.5598C12.8869 44.3565 13.59 44.7301 13.7933 45.3945C13.9966 46.0589 13.6227 46.762 12.9586 46.9653C9.86151 47.913 6.67538 49.4277 3.489 51.4674C3.27944 51.602 3.04448 51.6661 2.81228 51.6661Z" fill="#333333"/>
<path d="M66.1226 90.8456C65.9236 90.8456 65.7216 90.7983 65.5336 90.6984C60.8444 88.2089 56.6057 85.0899 52.5066 82.0734C52.0535 81.74 51.6022 81.408 51.1521 81.0782C50.5919 80.6676 50.4706 79.8804 50.8812 79.3199C51.292 78.7594 52.0789 78.6384 52.6394 79.049C53.0907 79.3798 53.5433 79.7129 53.9974 80.047C58.0235 83.0097 62.1867 86.0733 66.7132 88.4763C67.3266 88.8021 67.56 89.5636 67.2342 90.1772C67.0088 90.6031 66.5729 90.8456 66.1226 90.8456Z" fill="#333333"/>
<path d="M10.9775 78.2946C10.6303 78.2946 10.2849 78.1519 10.0363 77.8719C9.57522 77.3524 9.62227 76.5575 10.1418 76.0961C14.7827 71.9751 22.5736 67.4242 33.3365 69.1457C39.0252 70.0561 43.9487 72.9993 48.0141 75.7582C48.5889 76.1484 48.7386 76.9305 48.3487 77.5054C47.9585 78.0802 47.1771 78.2304 46.6015 77.84C42.7648 75.2362 38.1412 72.4624 32.939 71.63C23.1477 70.0637 16.0466 74.2174 11.8124 77.9773C11.5727 78.1902 11.2746 78.2946 10.9775 78.2946Z" fill="#333333"/>
<path d="M72.1841 23.1995C67.4287 23.1995 61.8489 21.311 55.53 17.5543C49.4789 13.9571 45.0586 9.98732 44.8732 9.82002C44.3575 9.35462 44.317 8.55941 44.7824 8.04369C45.2478 7.52822 46.043 7.48722 46.559 7.95262C46.7318 8.10834 63.9658 23.4951 75.7109 20.2254C76.3783 20.039 77.0736 20.4302 77.2598 21.0997C77.4462 21.7688 77.0548 22.4624 76.3853 22.6488C75.0669 23.0161 73.6654 23.1995 72.1841 23.1995Z" fill="#333333"/>
<path d="M84.8328 18.0154C89.4603 18.0154 93.2116 14.2641 93.2116 9.63662C93.2116 5.00915 89.4603 1.25784 84.8328 1.25784C80.2053 1.25784 76.454 5.00915 76.454 9.63662C76.454 14.2641 80.2053 18.0154 84.8328 18.0154Z" fill="#FCBC1D"/>
<path opacity="0.25" d="M76.454 9.63613C76.454 14.264 80.2042 18.0159 84.8321 18.0159C85.5503 18.0159 86.2492 17.9256 86.9135 17.7558C83.2935 16.8295 80.617 13.546 80.617 9.63638C80.617 5.72674 83.2935 2.44476 86.9135 1.51873C86.2492 1.34867 85.5503 1.25861 84.8321 1.25861C80.2042 1.25835 76.454 5.0085 76.454 9.63613Z" fill="black"/>
<path d="M84.8328 19.2733C79.5192 19.2733 75.196 14.9503 75.196 9.63663C75.196 4.32297 79.5192 0 84.8328 0C90.1465 0 94.4695 4.32297 94.4695 9.63663C94.4695 14.9503 90.1465 19.2733 84.8328 19.2733ZM84.8328 2.5157C80.9063 2.5157 77.7117 5.71013 77.7117 9.63663C77.7117 13.5631 80.9061 16.7576 84.8328 16.7576C88.7591 16.7576 91.9538 13.5631 91.9538 9.63663C91.9538 5.71013 88.7593 2.5157 84.8328 2.5157Z" fill="#333333"/>
<path opacity="0.25" d="M49.3912 92.4061C44.3699 90.6325 39.7762 87.9483 35.8115 84.5546C26.6065 76.6804 20.7726 64.9825 20.7726 51.921C20.7726 40.3387 25.3612 29.8256 32.8178 22.1049C36.9259 17.8509 41.9045 14.4421 47.4667 12.1679C49.7862 11.2208 52.2078 10.4729 54.7089 9.93978C51.8085 9.32142 48.8013 8.99312 45.7165 8.99312C39.9707 8.99312 34.4915 10.1227 29.4827 12.1679C23.9205 14.4421 18.9419 17.8509 14.8338 22.1049C7.37728 29.8256 2.78865 40.3387 2.78865 51.921C2.78865 64.9825 8.62255 76.6804 17.8275 84.5546C21.7922 87.9483 26.3859 90.6325 31.4072 92.4061C35.8827 93.9884 40.7002 94.8488 45.7165 94.8488C48.7995 94.8488 51.8065 94.5218 54.7061 93.9039C52.8895 93.5165 51.1147 93.0154 49.3912 92.4061Z" fill="black"/>
<path d="M64.5078 20.8619C64.2798 20.8619 64.0489 20.7998 63.8414 20.67C62.3568 19.7399 60.7936 18.9107 59.1944 18.2048C58.5589 17.9243 58.2711 17.1817 58.5516 16.546C58.8321 15.9108 59.5737 15.6225 60.2105 15.9032C61.9194 16.6577 63.5903 17.5442 65.1767 18.5379C65.7654 18.9067 65.9437 19.6828 65.5749 20.2717C65.3362 20.6526 64.9266 20.8619 64.5078 20.8619Z" fill="white"/>
<path d="M70.3187 80.6706C69.9826 80.6706 69.6476 80.5368 69.4 80.2721C68.9253 79.7647 68.952 78.9687 69.4591 78.4943C76.849 71.5804 81.0874 61.8303 81.0874 51.7439C81.0874 41.5998 77.0196 32.1579 69.633 25.1572C69.1288 24.6792 69.1074 23.8833 69.5854 23.3789C70.0634 22.8747 70.8594 22.8533 71.3635 23.3311C79.2565 30.8117 83.6031 40.9022 83.6031 51.7439C83.6031 62.5239 79.0744 72.9436 71.1779 80.3312C70.9353 80.5584 70.6267 80.6706 70.3187 80.6706Z" fill="white"/>
<path d="M65.028 84.8119C64.6162 84.8119 64.2127 84.6099 63.9717 84.2389C63.5936 83.6562 63.7591 82.8771 64.342 82.499C64.9835 82.0827 65.6202 81.6404 66.2348 81.1843C66.793 80.7702 67.5807 80.8872 67.9945 81.4447C68.4086 82.0027 68.2919 82.7903 67.7339 83.2044C67.0773 83.6917 66.3971 84.1644 65.7118 84.6092C65.5002 84.7465 65.2625 84.8119 65.028 84.8119Z" fill="white"/>
<path d="M86.5865 9.54783C86.5035 9.54783 86.4205 9.54028 86.34 9.52267C86.2597 9.50758 86.1815 9.48242 86.106 9.45223C86.028 9.41953 85.9551 9.38179 85.8872 9.33651C85.8192 9.29123 85.7538 9.2384 85.696 9.18054C85.462 8.94406 85.3287 8.62205 85.3287 8.28998C85.3287 7.96042 85.462 7.6359 85.696 7.40194C85.7536 7.34408 85.8192 7.29125 85.8872 7.24345C85.9553 7.19817 86.0283 7.16043 86.106 7.12773C86.1815 7.09754 86.2595 7.07238 86.34 7.05729C86.5035 7.02458 86.6698 7.02458 86.8331 7.05729C86.9136 7.07238 86.9918 7.09754 87.0673 7.12773C87.1427 7.16043 87.2157 7.19817 87.2834 7.24345C87.3538 7.29125 87.4167 7.34408 87.4748 7.40194C87.5349 7.4598 87.5852 7.52269 87.6333 7.59313C87.6786 7.66106 87.7163 7.73401 87.7465 7.80948C87.7792 7.88495 87.8041 7.96546 87.8195 8.04344C87.8346 8.12646 87.8446 8.20948 87.8446 8.28998C87.8446 8.373 87.8346 8.45602 87.8195 8.53652C87.8041 8.61702 87.7792 8.69501 87.7465 8.77048C87.7163 8.84595 87.6783 8.92142 87.6333 8.98934C87.5855 9.05727 87.5349 9.12268 87.4748 9.18054C87.4169 9.2384 87.3541 9.29123 87.2834 9.33651C87.2154 9.38179 87.1425 9.41953 87.0673 9.45223C86.9918 9.48242 86.9138 9.50758 86.8331 9.52267C86.75 9.54028 86.6695 9.54783 86.5865 9.54783Z" fill="#333333"/>
<path d="M84.0708 13.0698C83.9878 13.0698 83.9048 13.0623 83.8243 13.0446C83.744 13.0295 83.6658 13.0044 83.5903 12.9742C83.5123 12.9415 83.4394 12.9038 83.3714 12.8585C83.3035 12.8132 83.2381 12.7604 83.1802 12.7025C82.9463 12.4685 82.813 12.144 82.813 11.812C82.813 11.7314 82.8205 11.6484 82.8381 11.5654C82.8535 11.4874 82.8784 11.4069 82.9086 11.3315C82.9413 11.256 82.979 11.183 83.0243 11.1151C83.0696 11.0447 83.1224 10.9818 83.1802 10.9239C83.2379 10.866 83.3035 10.8132 83.3714 10.7654C83.4396 10.7201 83.5126 10.6824 83.5903 10.6497C83.6658 10.6195 83.7438 10.5944 83.8243 10.5793C84.2346 10.4962 84.6673 10.6296 84.9591 10.9239C85.0167 10.9818 85.0695 11.0447 85.1176 11.1151C85.1629 11.183 85.2006 11.256 85.2333 11.3315C85.2635 11.4069 85.2887 11.4874 85.3037 11.5654C85.3211 11.6484 85.3289 11.7314 85.3289 11.812C85.3289 12.144 85.1931 12.4685 84.9591 12.7025C84.7249 12.9365 84.4004 13.0698 84.0708 13.0698Z" fill="#333333"/>
<path d="M89.3739 13.0653C89.1981 13.0653 89.0197 13.0283 88.8494 12.9501C88.2182 12.66 87.9417 11.9131 88.2318 11.2819C88.8001 10.0452 88.7155 8.60871 88.0056 7.43942C87.6451 6.84546 87.8343 6.07188 88.4282 5.71138C89.022 5.35088 89.7958 5.54006 90.1563 6.13377C91.3002 8.01828 91.4355 10.3355 90.5178 12.3324C90.3057 12.7933 89.8501 13.0653 89.3739 13.0653Z" fill="white"/>
<path d="M45.7162 96C44.9784 96 44.2363 95.9816 43.5105 95.9457C30.1086 95.2865 17.8793 88.6642 9.95989 77.7765C4.44523 70.1932 1.53055 61.2155 1.53055 51.8143C1.53055 51.3283 1.53835 50.8415 1.55394 50.367C1.86337 40.7279 5.22233 31.6595 11.267 24.1431C18.9019 14.6497 30.2211 8.6774 42.3226 7.75791C43.4496 7.67212 44.5917 7.6286 45.716 7.6286C55.3624 7.6286 64.5286 10.6822 72.2244 16.459C73.8802 17.7009 75.4659 19.0765 76.9365 20.5472C81.1579 24.7635 84.4301 29.684 86.6617 35.172C88.8114 40.4569 89.9014 46.0561 89.9014 51.8143C89.9014 54.9476 89.5721 58.0716 88.9226 61.0992C87.112 69.5729 82.864 77.2757 76.6384 83.374C73.6837 86.2713 70.3467 88.7344 66.7211 90.6939C60.3136 94.165 53.0495 96 45.7162 96ZM45.7162 10.1443C44.6551 10.1443 43.5777 10.1853 42.5138 10.2666C31.1026 11.1337 20.4282 16.7661 13.2278 25.72C7.52772 32.8077 4.36046 41.3588 4.06838 50.4485C4.05379 50.8963 4.0465 51.3557 4.0465 51.8146C4.0465 60.6806 6.7949 69.1467 11.9946 76.2971C19.4639 86.5656 30.9964 92.8116 43.6348 93.4332C44.32 93.4672 45.0202 93.4846 45.7162 93.4846C52.6324 93.4846 59.4821 91.7545 65.5243 88.4818C68.9442 86.6336 72.0908 84.3111 74.878 81.5778C80.7501 75.8259 84.7561 68.5628 86.4632 60.5729C87.0758 57.7174 87.3863 54.771 87.3863 51.8146C87.3863 46.3829 86.3586 41.1027 84.3317 36.1201C82.2273 30.9451 79.1413 26.3046 75.1592 22.3276L75.1587 22.3271C73.7713 20.9402 72.2762 19.6428 70.7147 18.4715C63.4577 13.0238 54.8135 10.1443 45.7162 10.1443Z" fill="#333333"/>
</svg>
