<svg width="299" height="355" viewBox="0 0 299 355" fill="none" xmlns="http://www.w3.org/2000/svg">
<path d="M169.13 268.72C158.241 270.093 146.978 270.02 135.585 268.324C124.192 266.628 113.397 263.417 103.38 258.932C54.323 236.976 23.7639 184.385 32.0683 128.598C42.0666 61.4325 104.629 15.0829 171.794 25.0812C238.974 35.0816 285.31 97.6415 275.311 164.807C267.007 220.594 222.469 262.006 169.13 268.72Z" fill="#3CA523"/>
<path d="M179.805 263.366C170.079 264.738 160.032 264.754 149.879 263.242C139.727 261.731 130.12 258.789 121.214 254.644C77.6082 234.35 50.7329 185.092 58.5558 132.54C67.9743 69.2694 124.137 25.195 183.988 34.1045C243.853 43.0159 284.73 101.536 275.312 164.806C267.489 217.359 227.444 256.654 179.805 263.366Z" fill="#44CC27"/>
<path d="M117.97 187.379C126.723 199.21 127.207 214.623 120.456 226.682C106.955 229.628 92.3509 224.675 83.5818 212.856C74.8155 201.023 74.3445 185.612 81.0957 173.554C94.5981 170.607 109.204 175.546 117.97 187.379Z" fill="#F24125"/>
<path d="M215.329 193.536C218.276 207.037 213.323 221.641 201.49 230.408C189.66 239.161 174.26 239.647 162.188 232.894C159.241 219.392 164.194 204.789 176.028 196.022C187.86 187.255 203.271 186.784 215.329 193.536Z" fill="#F24125"/>
<path d="M204.259 343.105L48.099 319.859C55.0223 312.398 61.3667 306.425 66.3985 301.8C70.6095 297.507 101.003 272.595 106.769 259.328C115.757 263.353 125.444 266.232 135.673 267.754C145.895 269.276 156 269.343 165.771 268.111C167.423 282.482 189.291 315.223 192.079 320.598C195.532 326.47 199.834 334.003 204.259 343.105Z" fill="#3CA523"/>
<path d="M178.884 339.327L73.4982 323.64C74.2513 322.453 75.0137 321.422 75.775 320.561C79.3189 316.169 104.772 290.521 109.839 277.15C117.041 280.909 124.853 283.509 133.145 284.743C141.428 285.976 149.659 285.764 157.651 284.267C158.596 298.533 175.508 330.536 177.629 335.812C178.102 336.832 178.52 338.007 178.884 339.327Z" fill="#44CC27"/>
<path d="M275.125 135.301C273.388 135.042 271.964 133.656 271.735 131.828C271.172 127.342 270.342 122.84 269.266 118.448C268.739 116.294 270.057 114.121 272.211 113.593C274.366 113.066 276.538 114.384 277.066 116.538C278.214 121.229 279.102 126.037 279.702 130.829C279.978 133.028 278.418 135.036 276.218 135.312C275.846 135.359 275.479 135.353 275.125 135.301Z" fill="#333333"/>
<path d="M134.994 272.295C123.472 270.58 112.284 267.317 101.739 262.597C76.9551 251.504 55.9897 232.259 42.7058 208.405C28.9864 183.769 23.935 155.968 28.0973 128.007C38.4062 58.7549 103.133 10.8012 172.386 21.1101C214.176 27.331 250.027 53.8262 268.287 91.9844C269.244 93.9844 268.399 96.3817 266.399 97.339C264.398 98.2955 262.001 97.4499 261.044 95.4509C243.937 59.7016 210.351 34.8798 171.203 29.0523C106.331 19.3954 45.6965 64.3165 36.0395 129.189C32.1404 155.383 36.8715 181.425 49.7211 204.498C62.1678 226.848 81.8066 244.878 105.02 255.267C114.896 259.688 125.378 262.746 136.176 264.353C146.975 265.961 157.892 266.09 168.627 264.737C193.866 261.56 217.906 250.032 236.322 232.276C255.331 213.946 267.441 190.412 271.34 164.216C272.148 158.79 272.588 153.28 272.647 147.839C272.671 145.621 274.488 143.844 276.705 143.868C278.921 143.891 280.7 145.708 280.676 147.926C280.613 153.733 280.145 159.612 279.283 165.399C275.121 193.361 262.193 218.487 241.897 238.056C222.243 257.007 196.578 269.312 169.632 272.703C158.171 274.148 146.517 274.011 134.994 272.295Z" fill="#333333"/>
<path d="M232.384 82.0086C231.469 81.8723 230.595 81.4199 229.941 80.6642C227.289 77.5993 224.427 74.668 221.435 71.9511C219.793 70.4606 219.67 67.9216 221.161 66.2796C222.652 64.6384 225.191 64.5163 226.833 66.006C230.063 68.9386 233.152 72.1025 236.014 75.4105C237.464 77.0869 237.282 79.6226 235.604 81.0737C234.683 81.8709 233.502 82.1749 232.384 82.0086Z" fill="white"/>
<path d="M256.839 166.116C254.647 165.789 253.133 163.746 253.459 161.554C256.826 138.937 252.623 116.513 241.305 96.7096C240.205 94.7842 240.874 92.3322 242.798 91.2321C244.724 90.1321 247.176 90.8008 248.277 92.7255C260.497 114.11 265.036 138.319 261.402 162.737C261.075 164.93 259.033 166.442 256.839 166.116Z" fill="white"/>
<path d="M106.82 231.088C96.4323 229.542 86.8276 223.968 80.3583 215.248C70.9444 202.541 69.8598 185.406 77.5932 171.592C78.154 170.589 79.1176 169.875 80.2402 169.631C95.7062 166.255 111.783 172.284 121.196 184.989C121.196 184.99 121.197 184.991 121.198 184.991C130.603 197.705 131.687 214.839 123.959 228.642C123.398 229.644 122.434 230.358 121.312 230.603C116.468 231.66 111.561 231.794 106.82 231.088ZM83.7511 177.137C78.5062 187.894 79.6378 200.787 86.8081 210.466C93.986 220.142 105.99 224.98 117.802 223.098C123.043 212.348 121.91 199.455 114.743 189.767C107.572 180.089 95.5682 175.253 83.7511 177.137Z" fill="#333333"/>
<path d="M112.05 208.593C110.394 208.347 109.005 207.074 108.69 205.336C108.142 202.307 106.888 199.402 105.064 196.937C101.863 192.615 97.1621 189.797 91.8313 189.003C89.6385 188.677 88.1249 186.634 88.4513 184.441C88.7778 182.248 90.8207 180.734 93.0136 181.061C100.466 182.17 107.038 186.112 111.518 192.159C114.071 195.611 115.826 199.673 116.592 203.907C116.987 206.088 115.538 208.177 113.357 208.572C112.913 208.652 112.473 208.656 112.05 208.593Z" fill="white"/>
<path d="M173.948 241.078C169.206 240.372 164.555 238.817 160.228 236.397C159.225 235.836 158.51 234.872 158.265 233.749C154.891 218.288 160.925 202.212 173.637 192.794C186.342 183.382 203.477 182.297 217.29 190.031C218.293 190.592 219.007 191.556 219.251 192.678C222.625 208.139 216.591 224.214 203.879 233.632C195.153 240.09 184.338 242.625 173.948 241.078ZM165.771 230.238C176.525 235.475 189.419 234.344 199.103 227.18C208.785 220.007 213.629 208.004 211.747 196.19C200.99 190.946 188.096 192.077 178.418 199.247C168.732 206.423 163.89 218.426 165.771 230.238Z" fill="#333333"/>
<path d="M182.606 209.67C181.59 209.519 180.631 208.98 179.971 208.089C178.651 206.307 179.025 203.793 180.807 202.473C186.855 197.993 194.289 196.137 201.741 197.246C202.9 197.418 204.06 197.665 205.184 197.978C207.321 198.571 208.572 200.784 207.978 202.921C207.384 205.058 205.174 206.307 203.034 205.714C202.226 205.49 201.393 205.313 200.558 205.189C195.228 204.395 189.91 205.723 185.586 208.926C184.696 209.585 183.622 209.821 182.606 209.67Z" fill="white"/>
<path d="M200.647 344.858C196.338 335.98 192.148 328.645 188.617 322.642C188.58 322.579 188.545 322.516 188.512 322.451C187.992 321.445 186.557 319.093 184.739 316.115C177.491 304.238 164 282.129 161.944 269.721L169.867 268.409C171.667 279.279 185.125 301.334 191.594 311.934C193.515 315.081 194.917 317.379 195.591 318.659C199.191 324.783 203.46 332.264 207.871 341.352L200.647 344.858Z" fill="#333333"/>
<path d="M51.0591 322.59L45.1701 317.132C52.0368 309.723 58.2993 303.811 63.5267 299C64.5477 297.966 66.5729 296.163 69.3467 293.694C78.6107 285.445 97.8885 268.281 102.763 258.421L109.961 261.98C104.394 273.24 85.0688 290.446 74.6863 299.691C72.0622 302.027 69.9901 303.872 69.1985 304.686C69.1467 304.739 69.0936 304.79 69.0398 304.841C63.9126 309.556 57.768 315.353 51.0591 322.59Z" fill="#333333"/>
<path d="M203.668 347.076L47.5238 323.832C45.331 323.506 43.8174 321.463 44.1438 319.27C44.4703 317.077 46.5132 315.564 48.7061 315.89L204.85 339.133C207.043 339.46 208.556 341.503 208.23 343.696C207.904 345.889 205.861 347.402 203.668 347.076Z" fill="#333333"/>
<path d="M97.5686 41.029C96.1763 40.8218 94.9338 39.8867 94.4008 38.4768L84.2256 11.557C83.4416 9.48299 84.4871 7.16582 86.5611 6.38184C88.6359 5.59798 90.9522 6.64419 91.7363 8.7174L101.912 35.6364C102.696 37.7104 101.65 40.0276 99.5761 40.8116C98.9128 41.0627 98.2238 41.1266 97.5686 41.029Z" fill="#333333"/>
<path d="M238.157 61.9569C237.502 61.8594 236.861 61.5976 236.3 61.1649C234.544 59.8109 234.219 57.2896 235.573 55.5339L253.147 32.7458C254.502 30.99 257.024 30.6648 258.779 32.0188C260.534 33.3729 260.86 35.8941 259.505 37.6498L241.931 60.438C241.009 61.6314 239.549 62.1642 238.157 61.9569Z" fill="#333333"/>
<path d="M168.617 91.0054C166.424 90.679 164.91 88.636 165.237 86.4432C165.824 82.5023 163.094 78.8178 159.153 78.2311C155.212 77.6445 151.528 80.3742 150.941 84.3151C150.614 86.5079 148.571 88.0215 146.379 87.6951C144.186 87.3686 142.672 85.3257 142.999 83.1328C144.237 74.8118 152.014 69.0503 160.335 70.2889C168.656 71.5276 174.418 79.3044 173.179 87.6255C172.853 89.8183 170.81 91.3319 168.617 91.0054Z" fill="#333333"/>
<path d="M213.693 131.054C211.5 130.727 209.986 128.684 210.313 126.491C210.634 124.33 209.139 122.311 206.977 121.989C204.816 121.668 202.797 123.164 202.475 125.325C202.149 127.518 200.106 129.031 197.913 128.705C195.72 128.378 194.207 126.335 194.533 124.142C195.507 117.602 201.619 113.073 208.16 114.047C214.7 115.021 219.229 121.133 218.255 127.674C217.929 129.866 215.886 131.38 213.693 131.054Z" fill="#333333"/>
<path d="M247.755 191.274C245.562 190.948 244.049 188.905 244.375 186.712C244.697 184.551 243.201 182.532 241.04 182.21C238.879 181.888 236.859 183.384 236.538 185.545C236.211 187.738 234.168 189.252 231.975 188.925C229.782 188.599 228.269 186.556 228.595 184.363C229.569 177.823 235.681 173.294 242.222 174.268C248.762 175.241 253.291 181.354 252.317 187.894C251.991 190.087 249.949 191.601 247.755 191.274Z" fill="#333333"/>
<path d="M161.493 329.379C159.3 329.052 157.786 327.009 158.113 324.816C158.435 322.655 156.939 320.636 154.778 320.314C152.616 319.993 150.597 321.489 150.275 323.65C149.949 325.842 147.906 327.356 145.713 327.03C143.52 326.703 142.007 324.66 142.333 322.467C143.307 315.927 149.419 311.398 155.96 312.372C162.5 313.346 167.029 319.458 166.055 325.999C165.729 328.191 163.686 329.705 161.493 329.379Z" fill="#333333"/>
<path d="M108.779 121.774C106.586 121.448 105.073 119.405 105.399 117.212C105.948 113.528 103.397 110.086 99.7134 109.537C96.0298 108.989 92.5863 111.539 92.038 115.223C91.7116 117.416 89.6686 118.929 87.4757 118.603C85.2829 118.276 83.7693 116.233 84.0958 114.041C85.296 105.978 92.8319 100.395 100.896 101.595C108.959 102.795 114.542 110.331 113.341 118.394C113.015 120.587 110.972 122.101 108.779 121.774Z" fill="#333333"/>
</svg>
